<?xml version="1.0" encoding="UTF-8" standalone="no"?>
<svg
   contentStyleType="text/css"
   height="773px"
   preserveAspectRatio="none"
   style="width:632px;height:773px;"
   version="1.1"
   viewBox="0 0 632 773"
   width="632px"
   zoomAndPan="magnify"
   id="svg45"
   sodipodi:docname="data_usage.svg"
   inkscape:version="1.3.2 (091e20e, 2023-11-25, custom)"
   xmlns:inkscape="http://www.inkscape.org/namespaces/inkscape"
   xmlns:sodipodi="http://sodipodi.sourceforge.net/DTD/sodipodi-0.dtd"
   xmlns="http://www.w3.org/2000/svg"
   xmlns:svg="http://www.w3.org/2000/svg">
  <sodipodi:namedview
     id="namedview45"
     bordercolor="#999999"
     borderopacity="1"
     inkscape:showpageshadow="2"
     inkscape:pageopacity="0"
     inkscape:pagecheckerboard="0"
     inkscape:deskcolor="#d1d1d1"
     inkscape:zoom="1.450194"
     inkscape:cx="315.8198"
     inkscape:cy="386.5"
     inkscape:window-width="2256"
     inkscape:window-height="1398"
     inkscape:window-x="-11"
     inkscape:window-y="-11"
     inkscape:window-maximized="1"
     inkscape:current-layer="svg45"
     pagecolor="#ffffff" />
  <defs
     id="defs1" />
  <g
     id="g45">
    <path
       d="M88,81.2969 L88.2802,81.2969 L87.4476,91.3262 L88.2577,101.3555 L88.5329,111.3849 L87.0488,121.4142 L87.8964,131.4435 L87.4313,141.4728 L87.4887,151.5022 L87.9091,161.5315 L87.0782,171.5608 L88.7382,181.5902 L87.1596,191.6195 L87.7363,201.6488 L88.5759,211.6782 L87.8856,221.7075 L88.091,231.7368 L87.9574,241.7661 L88.238,251.7955 L88.3188,261.8248 L88.7809,271.8541 L88.8947,281.8835 L88.9057,291.9128 L88.3395,301.9421 L88.6181,311.9714 L88.9363,322.0008 L87.0384,332.0301 L88.9047,342.0594 L87.6047,352.0888 L88.7117,362.1181 L87.34,372.1474 L87.9087,382.1767 L88.9888,392.2061 L87.935,402.2354 L88.1404,412.2647 L88.4515,422.2941 L88.555,432.3234 L87.9948,442.3527 L88.383,452.382 L87.2368,462.4114 L88.3792,472.4407 L88.7309,482.47 L88.5927,492.4994 L88.8174,502.5287 L87.3559,512.558 L87.1304,522.5873 L87.1715,532.6167 L87.9215,542.646 L87.738,552.6753 L88.9085,562.7047 L87.7671,572.734 L87.5426,582.7633 L88.3044,592.7926 L87.1109,602.822 L87.3078,612.8513 L88.8653,622.8806 L88.5809,632.91 L88.9793,642.9393 L87.5709,652.9686 L88.4256,662.998 L88.7872,673.0273 L87.3701,683.0566 L88,693.0859 "
       fill="none"
       style="stroke:#181818;stroke-width:0.5;stroke-dasharray:5.0,5.0;"
       id="path1" />
    <path
       d="M331.7942,81.2969 L332.0745,81.2969 L331.2418,91.3262 L332.052,101.3555 L332.3271,111.3849 L330.843,121.4142 L331.6906,131.4435 L331.2256,141.4728 L331.2829,151.5022 L331.7034,161.5315 L330.8724,171.5608 L332.5324,181.5902 L330.9539,191.6195 L331.5305,201.6488 L332.3702,211.6782 L331.6799,221.7075 L331.8852,231.7368 L331.7516,241.7661 L332.0323,251.7955 L332.1131,261.8248 L332.5752,271.8541 L332.689,281.8835 L332.6999,291.9128 L332.1337,301.9421 L332.4123,311.9714 L332.7305,322.0008 L330.8327,332.0301 L332.6989,342.0594 L331.3989,352.0888 L332.506,362.1181 L331.1342,372.1474 L331.7029,382.1767 L332.783,392.2061 L331.7293,402.2354 L331.9346,412.2647 L332.2457,422.2941 L332.3492,432.3234 L331.789,442.3527 L332.1772,452.382 L331.031,462.4114 L332.1734,472.4407 L332.5252,482.47 L332.3869,492.4994 L332.6116,502.5287 L331.1501,512.558 L330.9247,522.5873 L330.9657,532.6167 L331.7157,542.646 L331.5322,552.6753 L332.7028,562.7047 L331.5613,572.734 L331.3368,582.7633 L332.0986,592.7926 L330.9051,602.822 L331.1021,612.8513 L332.6595,622.8806 L332.3751,632.91 L332.7736,642.9393 L331.3652,652.9686 L332.2198,662.998 L332.5815,673.0273 L331.1644,683.0566 L331.7942,693.0859 "
       fill="none"
       style="stroke:#181818;stroke-width:0.5;stroke-dasharray:5.0,5.0;"
       id="path2" />
    <path
       d="M420.7943,81.2969 L421.0745,81.2969 L420.2419,91.3262 L421.052,101.3555 L421.3272,111.3849 L419.8431,121.4142 L420.6907,131.4435 L420.2256,141.4728 L420.2829,151.5022 L420.7034,161.5315 L419.8725,171.5608 L421.5325,181.5902 L419.9539,191.6195 L420.5306,201.6488 L421.3702,211.6782 L420.6799,221.7075 L420.8853,231.7368 L420.7517,241.7661 L421.0323,251.7955 L421.1131,261.8248 L421.5752,271.8541 L421.689,281.8835 L421.7,291.9128 L421.1338,301.9421 L421.4124,311.9714 L421.7306,322.0008 L419.8327,332.0301 L421.699,342.0594 L420.3989,352.0888 L421.506,362.1181 L420.1343,372.1474 L420.7029,382.1767 L421.7831,392.2061 L420.7293,402.2354 L420.9347,412.2647 L421.2458,422.2941 L421.3493,432.3234 L420.7891,442.3527 L421.1772,452.382 L420.0311,462.4114 L421.1735,472.4407 L421.5252,482.47 L421.387,492.4994 L421.6116,502.5287 L420.1502,512.558 L419.9247,522.5873 L419.9657,532.6167 L420.7158,542.646 L420.5322,552.6753 L421.7028,562.7047 L420.5614,572.734 L420.3369,582.7633 L421.0986,592.7926 L419.9052,602.822 L420.1021,612.8513 L421.6595,622.8806 L421.3752,632.91 L421.7736,642.9393 L420.3652,652.9686 L421.2199,662.998 L421.5815,673.0273 L420.1644,683.0566 L420.7943,693.0859 "
       fill="none"
       style="stroke:#181818;stroke-width:0.5;stroke-dasharray:5.0,5.0;"
       id="path3" />
    <path
       d="M510.794,81.2969 L511.0743,81.2969 L510.2416,91.3262 L511.0518,101.3555 L511.3269,111.3849 L509.8428,121.4142 L510.6904,131.4435 L510.2254,141.4728 L510.2827,151.5022 L510.7032,161.5315 L509.8722,171.5608 L511.5322,181.5902 L509.9537,191.6195 L510.5303,201.6488 L511.37,211.6782 L510.6797,221.7075 L510.885,231.7368 L510.7514,241.7661 L511.0321,251.7955 L511.1129,261.8248 L511.575,271.8541 L511.6888,281.8835 L511.6997,291.9128 L511.1335,301.9421 L511.4122,311.9714 L511.7303,322.0008 L509.8325,332.0301 L511.6987,342.0594 L510.3987,352.0888 L511.5058,362.1181 L510.134,372.1474 L510.7027,382.1767 L511.7828,392.2061 L510.7291,402.2354 L510.9344,412.2647 L511.2455,422.2941 L511.349,432.3234 L510.7888,442.3527 L511.177,452.382 L510.0308,462.4114 L511.1732,472.4407 L511.525,482.47 L511.3867,492.4994 L511.6114,502.5287 L510.1499,512.558 L509.9245,522.5873 L509.9655,532.6167 L510.7155,542.646 L510.532,552.6753 L511.7026,562.7047 L510.5611,572.734 L510.3366,582.7633 L511.0984,592.7926 L509.9049,602.822 L510.1019,612.8513 L511.6593,622.8806 L511.3749,632.91 L511.7734,642.9393 L510.365,652.9686 L511.2196,662.998 L511.5813,673.0273 L510.1642,683.0566 L510.794,693.0859 "
       fill="none"
       style="stroke:#181818;stroke-width:0.5;stroke-dasharray:5.0,5.0;"
       id="path4" />
    <path
       d="M611.8962,81.2969 L612.1765,81.2969 L611.3438,91.3262 L612.154,101.3555 L612.4291,111.3849 L610.945,121.4142 L611.7926,131.4435 L611.3276,141.4728 L611.3849,151.5022 L611.8054,161.5315 L610.9744,171.5608 L612.6344,181.5902 L611.0559,191.6195 L611.6326,201.6488 L612.4722,211.6782 L611.7819,221.7075 L611.9872,231.7368 L611.8536,241.7661 L612.1343,251.7955 L612.2151,261.8248 L612.6772,271.8541 L612.791,281.8835 L612.8019,291.9128 L612.2357,301.9421 L612.5144,311.9714 L612.8325,322.0008 L610.9347,332.0301 L612.8009,342.0594 L611.5009,352.0888 L612.608,362.1181 L611.2362,372.1474 L611.8049,382.1767 L612.885,392.2061 L611.8313,402.2354 L612.0366,412.2647 L612.3477,422.2941 L612.4512,432.3234 L611.891,442.3527 L612.2792,452.382 L611.133,462.4114 L612.2754,472.4407 L612.6272,482.47 L612.489,492.4994 L612.7136,502.5287 L611.2521,512.558 L611.0267,522.5873 L611.0677,532.6167 L611.8177,542.646 L611.6342,552.6753 L612.8048,562.7047 L611.6633,572.734 L611.4388,582.7633 L612.2006,592.7926 L611.0071,602.822 L611.2041,612.8513 L612.7615,622.8806 L612.4771,632.91 L612.8756,642.9393 L611.4672,652.9686 L612.3218,662.998 L612.6835,673.0273 L611.2664,683.0566 L611.8962,693.0859 "
       fill="none"
       style="stroke:#181818;stroke-width:0.5;stroke-dasharray:5.0,5.0;"
       id="path5" />
    <text
       fill="#000000"
       font-family="sans-serif"
       font-size="14"
       lengthAdjust="spacing"
       textLength="41.9998"
       x="65"
       y="77.9951"
       id="text5">あなた</text>
    <polygon
       fill="#E2E2F0"
       points="97.0441,15.4459,95.8714,17.0482,94.4844,19.3951,92.5007,20.9767,90.4162,21.8415,88.7541,21.9166,86.6179,20.8349,84.6022,20.1283,83.0723,18.6936,82.2698,17.0511,81.7939,15.7433,81.3276,14.0351,80.5708,12.5651,81.1524,11.1298,81.6619,9.5576,83.5739,8.3142,84.9192,6.7008,86.5842,6.165,88.5636,5.7037,91.102,5.9778,92.4923,6.6335,94.1088,6.9307,96.0742,8.9443,96.7594,11.0701,97.0571,12.5206,96.7199,14.9108"
       style="stroke:#181818;stroke-width:0.5;"
       id="polygon5" />
    <path
       d="M88.9999,21.5 L89.1867,21.5 L88.6316,26.9 L89.1717,32.3 L89.3552,37.7 L88.3658,43.1 L88.9999,48.5 M75.9999,29.5 L75.9999,29.4309 L81.1999,29.1209 L86.3999,29.1591 L91.5999,29.4394 L96.7999,28.8854 L101.9999,29.5 M88.9999,48.5 L89.3718,48.8223 L85.9765,51.1331 L83.6671,54.3849 L81.4901,57.7515 L78.5423,60.4501 L75.9999,63.5 M88.9999,48.5 L89.0457,48.5397 L91.5784,51.4814 L94.3198,54.6039 L96.9605,57.6392 L99.7933,60.841 L101.9999,63.5 "
       fill="none"
       style="stroke:#181818;stroke-width:0.5;"
       id="path6" />
    <text
       fill="#000000"
       font-family="sans-serif"
       font-size="14"
       lengthAdjust="spacing"
       textLength="41.9998"
       x="65"
       y="705.0811"
       id="text6">あなた</text>
    <polygon
       fill="#E2E2F0"
       points="97.0441,718.8287,95.8714,720.431,94.4844,722.7779,92.5007,724.3595,90.4162,725.2243,88.7541,725.2994,86.6179,724.2178,84.6022,723.5111,83.0723,722.0764,82.2698,720.4339,81.7939,719.1261,81.3276,717.4179,80.5708,715.9479,81.1524,714.5126,81.6619,712.9404,83.5739,711.697,84.9192,710.0836,86.5842,709.5479,88.5636,709.0865,91.102,709.3606,92.4923,710.0163,94.1088,710.3135,96.0742,712.3272,96.7594,714.453,97.0571,715.9034,96.7199,718.2936"
       style="stroke:#181818;stroke-width:0.5;"
       id="polygon6" />
    <path
       d="M88.9999,724.8828 L89.1867,724.8828 L88.6316,730.2828 L89.1717,735.6828 L89.3552,741.0828 L88.3658,746.4828 L88.9999,751.8828 M75.9999,732.8828 L75.9999,732.8137 L81.1999,732.5037 L86.3999,732.5419 L91.5999,732.8222 L96.7999,732.2683 L101.9999,732.8828 M88.9999,751.8828 L89.3718,752.2051 L85.9765,754.5159 L83.6671,757.7677 L81.4901,761.1343 L78.5423,763.8329 L75.9999,766.8828 M88.9999,751.8828 L89.0457,751.9225 L91.5784,754.8642 L94.3198,757.9867 L96.9605,761.022 L99.7933,764.2238 L101.9999,766.8828 "
       fill="none"
       style="stroke:#181818;stroke-width:0.5;"
       id="path7" />
    <polygon
       fill="#E2E2F0"
       points="293.2942,50,293.2942,50.2102,303.1692,49.5857,313.0442,50.1933,322.9191,50.3997,332.7941,49.2866,342.669,49.9223,352.544,49.5735,362.419,49.6165,372.2939,50,372.2852,49.979,372.5593,49.9335,373.0717,50.4634,373.2742,50.2452,373.6829,50.5249,374.0617,50.7322,374.1947,50.7873,374.1817,51.0748,374.3756,51.448,374.4912,51.7888,374.7025,52.1692,374.7939,52.5,374.8736,52.5,374.9892,57.5594,375.0176,62.6188,375.0203,67.6781,374.8788,72.7375,374.7939,77.7969,374.9367,77.856,374.8637,78.24,374.2789,78.412,374.5635,78.9441,374.1168,79.1733,374.0617,79.5646,374.1298,79.729,373.645,79.5586,373.3459,79.8364,373.0956,80.2324,372.6413,80.1354,372.2939,80.2969,372.2939,80.4022,362.419,80.6355,352.544,80.7131,342.669,80.293,332.7941,80.5841,322.9191,79.7245,313.0442,80.5813,303.1692,80.8451,293.2942,80.2969,293.3509,80.4338,293.0189,80.3392,292.5255,79.8552,292.1504,79.6567,291.8008,79.5197,291.5265,79.5646,291.5083,79.5571,291.3195,79.186,291.4434,78.9445,291.0333,78.4817,290.835,78.1067,290.7942,77.7969,290.8703,77.7969,290.572,72.7375,290.6212,67.6781,291.0106,62.6188,290.9395,57.5594,290.7942,52.5,291.0204,52.5937,290.8416,52.1054,291.1854,51.8336,291.4154,51.5147,291.2345,51.0255,291.5265,50.7322,291.5142,50.7027,291.8961,50.6246,292.3167,50.6401,292.5866,50.2916,292.9997,50.2889,293.2942,50"
       style="stroke:#181818;stroke-width:0.5;"
       id="polygon7" />
    <text
       fill="#000000"
       font-family="sans-serif"
       font-size="14"
       lengthAdjust="spacing"
       textLength="69.9997"
       x="297.7942"
       y="69.9951"
       id="text7">投票データ</text>
    <polygon
       fill="#E2E2F0"
       points="293.2942,692.0859,293.2942,692.2961,303.1692,691.6716,313.0442,692.2792,322.9191,692.4856,332.7941,691.3725,342.669,692.0082,352.544,691.6594,362.419,691.7024,372.2939,692.0859,372.2852,692.0649,372.5593,692.0195,373.0717,692.5493,373.2742,692.3312,373.6829,692.6108,374.0617,692.8182,374.1947,692.8733,374.1817,693.1608,374.3756,693.534,374.4912,693.8748,374.7025,694.2552,374.7939,694.5859,374.8736,694.5859,374.9892,699.6453,375.0176,704.7047,375.0203,709.7641,374.8788,714.8234,374.7939,719.8828,374.9367,719.9419,374.8637,720.3259,374.2789,720.4979,374.5635,721.03,374.1168,721.2592,374.0617,721.6506,374.1298,721.815,373.645,721.6446,373.3459,721.9224,373.0956,722.3183,372.6413,722.2214,372.2939,722.3828,372.2939,722.4881,362.419,722.7214,352.544,722.799,342.669,722.3789,332.7941,722.67,322.9191,721.8104,313.0442,722.6672,303.1692,722.931,293.2942,722.3828,293.3509,722.5197,293.0189,722.4252,292.5255,721.9412,292.1504,721.7426,291.8008,721.6057,291.5265,721.6506,291.5083,721.6431,291.3195,721.272,291.4434,721.0304,291.0333,720.5676,290.835,720.1926,290.7942,719.8828,290.8703,719.8828,290.572,714.8234,290.6212,709.7641,291.0106,704.7047,290.9395,699.6453,290.7942,694.5859,291.0204,694.6796,290.8416,694.1913,291.1854,693.9195,291.4154,693.6006,291.2345,693.1115,291.5265,692.8182,291.5142,692.7886,291.8961,692.7105,292.3167,692.726,292.5866,692.3775,292.9997,692.3748,293.2942,692.0859"
       style="stroke:#181818;stroke-width:0.5;"
       id="polygon8" />
    <text
       fill="#000000"
       font-family="sans-serif"
       font-size="14"
       lengthAdjust="spacing"
       textLength="69.9997"
       x="297.7942"
       y="712.0811"
       id="text8">投票データ</text>
    <polygon
       fill="#E2E2F0"
       points="389.2943,50,389.2943,50.2102,400.1276,49.5857,410.9609,50.1933,421.7942,50.3997,432.6275,49.2866,443.4607,49.9223,454.294,50,454.2396,49.8687,454.5987,50.0283,454.9924,50.2719,455.2665,50.2264,455.7789,50.7563,456.0618,50.7322,455.8677,50.6518,456.1473,51.0606,456.4877,51.4944,456.4747,51.782,456.6686,52.1552,456.794,52.5,456.7834,52.5,456.8535,57.5594,456.8737,62.6188,456.9893,67.6781,457.0177,72.7375,456.794,77.7969,457.0032,77.8835,456.726,78.1829,456.6439,78.5631,456.571,78.9471,455.9862,79.1191,456.0618,79.5646,456.1484,79.7736,455.6704,79.6198,455.4228,80.0219,454.938,79.8515,454.6389,80.1293,454.294,80.2969,454.294,81.0385,443.4607,80.2481,432.6275,80.4022,421.7942,80.6355,410.9609,80.7131,400.1276,80.293,389.2943,80.2969,389.3309,80.3853,388.8677,79.9741,388.6235,80.0916,388.3035,80.0264,387.9368,79.848,387.5265,79.5646,387.7153,79.6428,387.2313,79.1495,387.0328,78.7743,386.8958,78.4247,386.9226,78.1429,386.7943,77.7969,386.7288,77.7969,387.0214,72.7375,386.7361,67.6781,386.6799,62.6188,386.8704,57.5594,386.7943,52.5,386.5889,52.4149,386.7809,52.0802,387.287,51.8757,387.3678,51.4949,387.6063,51.1795,387.5265,50.7322,387.4855,50.6331,387.9208,50.6841,388.3089,50.6212,388.5269,50.1474,388.9285,50.1169,389.2943,50"
       style="stroke:#181818;stroke-width:0.5;"
       id="polygon9" />
    <text
       fill="#000000"
       font-family="sans-serif"
       font-size="14"
       lengthAdjust="spacing"
       textLength="55.9998"
       x="393.7943"
       y="69.9951"
       id="text9">分析結果</text>
    <polygon
       fill="#E2E2F0"
       points="389.2943,692.0859,389.2943,692.2961,400.1276,691.6716,410.9609,692.2792,421.7942,692.4856,432.6275,691.3725,443.4607,692.0082,454.294,692.0859,454.2396,691.9546,454.5987,692.1143,454.9924,692.3578,455.2665,692.3124,455.7789,692.8422,456.0618,692.8182,455.8677,692.7378,456.1473,693.1465,456.4877,693.5804,456.4747,693.8679,456.6686,694.2411,456.794,694.5859,456.7834,694.5859,456.8535,699.6453,456.8737,704.7047,456.9893,709.7641,457.0177,714.8234,456.794,719.8828,457.0032,719.9695,456.726,720.2688,456.6439,720.6491,456.571,721.0331,455.9862,721.205,456.0618,721.6506,456.1484,721.8595,455.6704,721.7057,455.4228,722.1079,454.938,721.9375,454.6389,722.2153,454.294,722.3828,454.294,723.1244,443.4607,722.3341,432.6275,722.4881,421.7942,722.7214,410.9609,722.799,400.1276,722.3789,389.2943,722.3828,389.3309,722.4713,388.8677,722.0601,388.6235,722.1775,388.3035,722.1123,387.9368,721.9339,387.5265,721.6506,387.7153,721.7288,387.2313,721.2354,387.0328,720.8603,386.8958,720.5107,386.9226,720.2289,386.7943,719.8828,386.7288,719.8828,387.0214,714.8234,386.7361,709.7641,386.6799,704.7047,386.8704,699.6453,386.7943,694.5859,386.5889,694.5009,386.7809,694.1662,387.287,693.9616,387.3678,693.5809,387.6063,693.2654,387.5265,692.8182,387.4855,692.7191,387.9208,692.77,388.3089,692.7071,388.5269,692.2333,388.9285,692.2029,389.2943,692.0859"
       style="stroke:#181818;stroke-width:0.5;"
       id="polygon10" />
    <text
       fill="#000000"
       font-family="sans-serif"
       font-size="14"
       lengthAdjust="spacing"
       textLength="55.9998"
       x="393.7943"
       y="712.0811"
       id="text10">分析結果</text>
    <polygon
       fill="#E2E2F0"
       points="469.294,50,469.294,50.2102,479.6945,49.5857,490.0951,50.1933,500.4956,50.3997,510.8961,49.2866,521.2966,49.9223,531.6971,49.5735,542.0976,49.6165,552.4981,50,552.4894,49.979,552.7635,49.9335,553.2759,50.4634,553.4784,50.2452,553.8871,50.5249,554.2659,50.7322,554.3989,50.7873,554.3859,51.0748,554.5798,51.448,554.6954,51.7888,554.9067,52.1692,554.9981,52.5,555.0778,52.5,555.1934,57.5594,555.2218,62.6188,555.2246,67.6781,555.083,72.7375,554.9981,77.7969,555.1409,77.856,555.068,78.24,554.4831,78.412,554.7678,78.9441,554.321,79.1733,554.2659,79.5646,554.334,79.729,553.8492,79.5586,553.5501,79.8364,553.2998,80.2324,552.8455,80.1354,552.4981,80.2969,552.4981,80.4022,542.0976,80.6355,531.6971,80.7131,521.2966,80.293,510.8961,80.5841,500.4956,79.7245,490.0951,80.5813,479.6945,80.8451,469.294,80.2969,469.3507,80.4338,469.0187,80.3392,468.5253,79.8552,468.1502,79.6567,467.8006,79.5197,467.5263,79.5646,467.5081,79.5571,467.3193,79.186,467.4432,78.9445,467.0331,78.4817,466.8348,78.1067,466.794,77.7969,466.8701,77.7969,466.5718,72.7375,466.621,67.6781,467.0104,62.6188,466.9393,57.5594,466.794,52.5,467.0202,52.5937,466.8414,52.1054,467.1852,51.8336,467.4152,51.5147,467.2343,51.0255,467.5263,50.7322,467.514,50.7027,467.8959,50.6246,468.3165,50.6401,468.5864,50.2916,468.9995,50.2889,469.294,50"
       style="stroke:#181818;stroke-width:0.5;"
       id="polygon11" />
    <text
       fill="#000000"
       font-family="sans-serif"
       font-size="14"
       lengthAdjust="spacing"
       textLength="74.2041"
       x="473.794"
       y="69.9951"
       id="text11">X (Twitter)</text>
    <polygon
       fill="#E2E2F0"
       points="469.294,692.0859,469.294,692.2961,479.6945,691.6716,490.0951,692.2792,500.4956,692.4856,510.8961,691.3725,521.2966,692.0082,531.6971,691.6594,542.0976,691.7024,552.4981,692.0859,552.4894,692.0649,552.7635,692.0195,553.2759,692.5493,553.4784,692.3312,553.8871,692.6108,554.2659,692.8182,554.3989,692.8733,554.3859,693.1608,554.5798,693.534,554.6954,693.8748,554.9067,694.2552,554.9981,694.5859,555.0778,694.5859,555.1934,699.6453,555.2218,704.7047,555.2246,709.7641,555.083,714.8234,554.9981,719.8828,555.1409,719.9419,555.068,720.3259,554.4831,720.4979,554.7678,721.03,554.321,721.2592,554.2659,721.6506,554.334,721.815,553.8492,721.6446,553.5501,721.9224,553.2998,722.3183,552.8455,722.2214,552.4981,722.3828,552.4981,722.4881,542.0976,722.7214,531.6971,722.799,521.2966,722.3789,510.8961,722.67,500.4956,721.8104,490.0951,722.6672,479.6945,722.931,469.294,722.3828,469.3507,722.5197,469.0187,722.4252,468.5253,721.9412,468.1502,721.7426,467.8006,721.6057,467.5263,721.6506,467.5081,721.6431,467.3193,721.272,467.4432,721.0304,467.0331,720.5676,466.8348,720.1926,466.794,719.8828,466.8701,719.8828,466.5718,714.8234,466.621,709.7641,467.0104,704.7047,466.9393,699.6453,466.794,694.5859,467.0202,694.6796,466.8414,694.1913,467.1852,693.9195,467.4152,693.6006,467.2343,693.1115,467.5263,692.8182,467.514,692.7886,467.8959,692.7105,468.3165,692.726,468.5864,692.3775,468.9995,692.3748,469.294,692.0859"
       style="stroke:#181818;stroke-width:0.5;"
       id="polygon12" />
    <text
       fill="#000000"
       font-family="sans-serif"
       font-size="14"
       lengthAdjust="spacing"
       textLength="74.2041"
       x="473.794"
       y="712.0811"
       id="text12">X (Twitter)</text>
    <text
       fill="#000000"
       font-family="sans-serif"
       font-size="14"
       lengthAdjust="spacing"
       textLength="27.9999"
       x="595.8962"
       y="77.9951"
       id="text13">誰か</text>
    <polygon
       fill="#E2E2F0"
       points="620.9404,15.4459,619.7677,17.0482,618.3807,19.3951,616.397,20.9767,614.3125,21.8415,612.6504,21.9166,610.5141,20.8349,608.4985,20.1283,606.9686,18.6936,606.166,17.0511,605.6901,15.7433,605.2239,14.0351,604.4671,12.5651,605.0486,11.1298,605.5581,9.5576,607.4702,8.3142,608.8154,6.7008,610.4805,6.165,612.4599,5.7037,614.9983,5.9778,616.3886,6.6335,618.0051,6.9307,619.9705,8.9443,620.6556,11.0701,620.9533,12.5206,620.6161,14.9108"
       style="stroke:#181818;stroke-width:0.5;"
       id="polygon13" />
    <path
       d="M612.8962,21.5 L613.083,21.5 L612.5279,26.9 L613.068,32.3 L613.2514,37.7 L612.2621,43.1 L612.8962,48.5 M599.8962,29.5 L599.8962,29.4309 L605.0962,29.1209 L610.2962,29.1591 L615.4962,29.4394 L620.6962,28.8854 L625.8962,29.5 M612.8962,48.5 L613.2681,48.8223 L609.8728,51.1331 L607.5633,54.3849 L605.3863,57.7515 L602.4386,60.4501 L599.8962,63.5 M612.8962,48.5 L612.942,48.5397 L615.4747,51.4814 L618.2161,54.6039 L620.8568,57.6392 L623.6896,60.841 L625.8962,63.5 "
       fill="none"
       style="stroke:#181818;stroke-width:0.5;"
       id="path13" />
    <text
       fill="#000000"
       font-family="sans-serif"
       font-size="14"
       lengthAdjust="spacing"
       textLength="27.9999"
       x="595.8962"
       y="705.0811"
       id="text14">誰か</text>
    <polygon
       fill="#E2E2F0"
       points="620.9404,718.8287,619.7677,720.431,618.3807,722.7779,616.397,724.3595,614.3125,725.2243,612.6504,725.2994,610.5141,724.2178,608.4985,723.5111,606.9686,722.0764,606.166,720.4339,605.6901,719.1261,605.2239,717.4179,604.4671,715.9479,605.0486,714.5126,605.5581,712.9404,607.4702,711.697,608.8154,710.0836,610.4805,709.5479,612.4599,709.0865,614.9983,709.3606,616.3886,710.0163,618.0051,710.3135,619.9705,712.3272,620.6556,714.453,620.9533,715.9034,620.6161,718.2936"
       style="stroke:#181818;stroke-width:0.5;"
       id="polygon14" />
    <path
       d="M612.8962,724.8828 L613.083,724.8828 L612.5279,730.2828 L613.068,735.6828 L613.2514,741.0828 L612.2621,746.4828 L612.8962,751.8828 M599.8962,732.8828 L599.8962,732.8137 L605.0962,732.5037 L610.2962,732.5419 L615.4962,732.8222 L620.6962,732.2683 L625.8962,732.8828 M612.8962,751.8828 L613.2681,752.2051 L609.8728,754.5159 L607.5633,757.7677 L605.3863,761.1343 L602.4386,763.8329 L599.8962,766.8828 M612.8962,751.8828 L612.942,751.9225 L615.4747,754.8642 L618.2161,757.9867 L620.8568,761.022 L623.6896,764.2238 L625.8962,766.8828 "
       fill="none"
       style="stroke:#181818;stroke-width:0.5;"
       id="path14" />
    <polygon
       fill="#181818"
       points="498.8961,108.4297,498.9221,108.4947,500.8448,109.1015,502.92,110.0895,504.9456,110.9534,506.8078,111.4089,508.8961,112.4297,508.8865,112.4056,506.8433,113.0977,504.8486,113.911,502.8877,114.8086,500.8105,115.4157,498.8961,116.4297,499.0266,116.5602,499.5475,115.4811,500.4495,114.7831,501.3979,114.1315,502.0759,113.2095,502.8961,112.4297,502.9122,112.4458,502.0886,111.6222,501.3382,110.8718,500.5525,110.0861,499.8341,109.3677,498.8961,108.4297"
       style="stroke:#181818;stroke-width:1.0;"
       id="polygon15" />
    <path
       d="M88.9999,112.4297 L88.9999,112.7099 L98.9022,111.8773 L108.8045,112.6874 L118.7068,112.9626 L128.6091,111.4785 L138.5114,112.3261 L148.4136,111.861 L158.3159,111.9184 L168.2182,112.3388 L178.1205,111.5079 L188.0228,113.1679 L197.9251,111.5893 L207.8274,112.166 L217.7297,113.0056 L227.632,112.3153 L237.5343,112.5207 L247.4365,112.3871 L257.3388,112.6677 L267.2411,112.7485 L277.1434,113.2106 L287.0457,113.3244 L296.948,113.3354 L306.8503,112.7692 L316.7526,113.0478 L326.6549,113.366 L336.5572,111.4681 L346.4594,113.3344 L356.3617,112.0343 L366.264,113.1414 L376.1663,111.7697 L386.0686,112.3384 L395.9709,113.4185 L405.8732,112.3647 L415.7755,112.5701 L425.6778,112.8812 L435.5801,112.9847 L445.4823,112.4245 L455.3846,112.8126 L465.2869,111.6665 L475.1892,112.8089 L485.0915,113.1606 L494.9938,113.0224 L504.8961,112.4297 "
       fill="none"
       style="stroke:#181818;stroke-width:1.0;"
       id="path15" />
    <text
       fill="#000000"
       font-family="sans-serif"
       font-size="13"
       lengthAdjust="spacing"
       textLength="194.4035"
       x="95.9999"
       y="107.3638"
       id="text15">1.アクセスを許可してもらえると</text>
    <polygon
       fill="#181818"
       points="99.9999,152.6953,100.0259,152.7604,97.9486,153.3671,96.0238,154.3551,94.0494,155.219,91.9116,155.6745,89.9999,156.6953,89.9903,156.6713,91.9471,157.3633,93.9524,158.1766,95.9915,159.0742,97.9143,159.6813,99.9999,160.6953,100.1304,160.8258,99.0513,159.7468,98.3533,159.0487,97.7017,158.3971,96.7797,157.4751,95.9999,156.6953,96.016,156.7114,96.7924,155.8878,97.642,155.1374,98.4563,154.3517,99.338,153.6334,99.9999,152.6953"
       style="stroke:#181818;stroke-width:1.0;"
       id="polygon16" />
    <path
       d="M93.9999,156.6953 L93.9999,156.9756 L103.9022,156.1429 L113.8045,156.953 L123.7068,157.2282 L133.6091,155.7441 L143.5114,156.5917 L153.4136,156.1267 L163.3159,156.184 L173.2182,156.6044 L183.1205,155.7735 L193.0228,157.4335 L202.9251,155.8549 L212.8274,156.4316 L222.7297,157.2712 L232.632,156.5809 L242.5343,156.7863 L252.4365,156.6527 L262.3388,156.9333 L272.2411,157.0142 L282.1434,157.4762 L292.0457,157.5901 L301.948,157.601 L311.8503,157.0348 L321.7526,157.3134 L331.6549,157.6316 L341.5572,155.7337 L351.4594,157.6 L361.3617,156.3 L371.264,157.4071 L381.1663,156.0353 L391.0686,156.604 L400.9709,157.6841 L410.8732,156.6303 L420.7755,156.8357 L430.6778,157.1468 L440.5801,157.2503 L450.4823,156.6901 L460.3846,157.0783 L470.2869,155.9321 L480.1892,157.0745 L490.0915,157.4262 L499.9938,157.288 L509.8961,156.6953 "
       fill="none"
       style="stroke:#181818;stroke-width:1.0;stroke-dasharray:2.0,2.0;"
       id="path16" />
    <text
       fill="#000000"
       font-family="sans-serif"
       font-size="13"
       lengthAdjust="spacing"
       textLength="154.8004"
       x="105.9999"
       y="136.4966"
       id="text16">2.ユーザ名, ユーザ番号 を</text>
    <text
       fill="#000000"
       font-family="sans-serif"
       font-size="13"
       lengthAdjust="spacing"
       textLength="104.0001"
       x="118.3969"
       y="151.6294"
       id="text17">教えてもらえます</text>
    <path
       d="M5,169.6953 L5.1868,169.6953 L4.6317,174.6953 L5.1718,179.6953 L5.3553,184.6953 L4.3659,189.6953 L5,194.6953 L5,194.4881 L14.8824,193.558 L24.7647,193.6726 L34.6471,194.5136 L44.5294,192.8517 L54.4118,196.1717 L64.2941,193.0146 L74.1765,194.1679 L84.0588,195.8472 L93.9412,194.4666 L103.8235,194.8773 L113.7059,194.6101 L123.5882,195.1714 L133.4706,195.333 L143.3529,196.2572 L153.2353,196.4848 L163.1176,196.5067 L173,194.6953 L173.2263,194.6953 L173.4121,191.6953 L173.6242,188.6953 L172.3589,185.6953 L173.6031,182.6953 L173,179.6953 L172.8136,179.5089 L171.3355,178.0308 L168.6889,175.3842 L166.9569,173.6523 L165.4661,172.1614 L163,169.6953 L163,169.5654 L153.125,169.9761 L143.25,170.5983 L133.375,170.8053 L123.5,169.6849 L113.625,170.4612 L103.75,168.1689 L93.875,170.4537 L84,171.1572 L74.125,170.8807 L64.25,171.33 L54.375,168.4071 L44.5,167.9562 L34.625,168.0382 L24.75,169.5383 L14.875,169.1712 L5,169.6953 "
       fill="#FEFFDD"
       style="stroke:#181818;stroke-width:0.5;"
       id="path17" />
    <path
       d="M163,169.6953 L163.6057,169.6953 L162.8447,171.6953 L162.6951,173.6953 L163.2029,175.6953 L162.4073,177.6953 L163,179.6953 L163,179.2339 L165,180.2722 L167,180.0826 L169,180.3482 L171,179.4093 L173,179.6953 L173.2006,179.8959 L171.3711,178.0664 L168.7031,175.3984 L166.9397,173.6351 L165.0792,171.7745 L163,169.6953 "
       fill="#FEFFDD"
       style="stroke:#181818;stroke-width:0.5;"
       id="path18" />
    <text
       fill="#000000"
       font-family="sans-serif"
       font-size="13"
       lengthAdjust="spacing"
       textLength="147.1706"
       x="11"
       y="186.7622"
       id="text18">ようこそ&quot;ユーザ名&quot;さん!</text>
    <polygon
       fill="#181818"
       points="320.7941,272.2266,320.8201,272.2916,322.7428,272.8983,324.818,273.8864,326.8436,274.7503,328.7058,275.2058,330.7941,276.2266,330.7845,276.2025,328.7413,276.8946,326.7466,277.7079,324.7856,278.6055,322.7085,279.2126,320.7941,280.2266,320.9246,280.3571,321.4455,279.278,322.3475,278.5799,323.2959,277.9284,323.9739,277.0063,324.7941,276.2266,324.8102,276.2426,323.9866,275.419,323.2362,274.6686,322.4504,273.8829,321.7321,273.1646,320.7941,272.2266"
       style="stroke:#181818;stroke-width:1.0;"
       id="polygon18" />
    <path
       d="M88.9999,276.2266 L88.9999,276.5068 L98.908,275.6741 L108.8161,276.4843 L118.7242,276.7595 L128.6323,275.2754 L138.5404,276.1229 L148.4485,275.6579 L158.3565,275.7152 L168.2646,276.1357 L178.1727,275.3047 L188.0808,276.9648 L197.9889,275.3862 L207.897,275.9629 L217.8051,276.8025 L227.7132,276.1122 L237.6213,276.3175 L247.5294,276.184 L257.4374,276.4646 L267.3455,276.5454 L277.2536,277.0075 L287.1617,277.1213 L297.0698,277.1322 L306.9779,276.5661 L316.886,276.8447 L326.7941,276.2266 "
       fill="none"
       style="stroke:#181818;stroke-width:1.0;"
       id="path19" />
    <text
       fill="#000000"
       font-family="sans-serif"
       font-size="13"
       lengthAdjust="spacing"
       textLength="129.4035"
       x="95.9999"
       y="240.895"
       id="text19">3.推しキャラ投票時、</text>
    <text
       fill="#000000"
       font-family="sans-serif"
       font-size="13"
       lengthAdjust="spacing"
       textLength="179.1438"
       x="108.3969"
       y="256.0278"
       id="text20">ユーザ番号も記録します(自動)</text>
    <text
       fill="#000000"
       font-family="sans-serif"
       font-size="13"
       lengthAdjust="spacing"
       textLength="44.0718"
       x="108.3969"
       y="271.1606"
       id="text21">(ユーザ</text>
    <text
       fill="#000000"
       font-family="sans-serif"
       font-size="13"
       lengthAdjust="spacing"
       text-decoration="underline"
       textLength="13"
       x="152.4687"
       y="271.1606"
       id="text22">名</text>
    <text
       fill="#000000"
       font-family="sans-serif"
       font-size="13"
       lengthAdjust="spacing"
       textLength="39"
       x="165.4687"
       y="271.1606"
       id="text23">は記録</text>
    <text
       fill="#000000"
       font-family="sans-serif"
       font-size="13"
       lengthAdjust="spacing"
       text-decoration="underline"
       textLength="52.0001"
       x="204.4688"
       y="271.1606"
       id="text24">しません</text>
    <text
       fill="#000000"
       font-family="sans-serif"
       font-size="13"
       lengthAdjust="spacing"
       textLength="5.0718"
       x="256.4688"
       y="271.1606"
       id="text25">)</text>
    <polygon
       fill="#181818"
       points="320.7941,341.4922,320.8201,341.5572,322.7428,342.164,324.818,343.152,326.8436,344.0159,328.7058,344.4714,330.7941,345.4922,330.7845,345.4681,328.7413,346.1602,326.7466,346.9735,324.7856,347.8711,322.7085,348.4782,320.7941,349.4922,320.9246,349.6227,321.4455,348.5436,322.3475,347.8456,323.2959,347.194,323.9739,346.272,324.7941,345.4922,324.8102,345.5083,323.9866,344.6847,323.2362,343.9343,322.4504,343.1486,321.7321,342.4302,320.7941,341.4922"
       style="stroke:#181818;stroke-width:1.0;"
       id="polygon25" />
    <path
       d="M88.9999,345.4922 L88.9999,345.7724 L98.908,344.9398 L108.8161,345.7499 L118.7242,346.0251 L128.6323,344.541 L138.5404,345.3886 L148.4485,344.9235 L158.3565,344.9809 L168.2646,345.4013 L178.1727,344.5704 L188.0808,346.2304 L197.9889,344.6518 L207.897,345.2285 L217.8051,346.0681 L227.7132,345.3778 L237.6213,345.5832 L247.5294,345.4496 L257.4374,345.7302 L267.3455,345.811 L277.2536,346.2731 L287.1617,346.3869 L297.0698,346.3979 L306.9779,345.8317 L316.886,346.1103 L326.7941,345.4922 "
       fill="none"
       style="stroke:#181818;stroke-width:1.0;"
       id="path25" />
    <text
       fill="#000000"
       font-family="sans-serif"
       font-size="13"
       lengthAdjust="spacing"
       textLength="129.4035"
       x="95.9999"
       y="325.2935"
       id="text26">4.あなたが使うとき、</text>
    <text
       fill="#000000"
       font-family="sans-serif"
       font-size="13"
       lengthAdjust="spacing"
       textLength="207.3972"
       x="108.3969"
       y="340.4263"
       id="text27">あなたのユーザ番号は分かるので...</text>
    <polygon
       fill="#181818"
       points="99.9999,385.7578,100.0259,385.8229,97.9486,386.4296,96.0238,387.4176,94.0494,388.2815,91.9116,388.737,89.9999,389.7578,89.9903,389.7338,91.9471,390.4258,93.9524,391.2391,95.9915,392.1367,97.9143,392.7438,99.9999,393.7578,100.1304,393.8883,99.0513,392.8093,98.3533,392.1112,97.7017,391.4596,96.7797,390.5376,95.9999,389.7578,96.016,389.7739,96.7924,388.9503,97.642,388.1999,98.4563,387.4142,99.338,386.6959,99.9999,385.7578"
       style="stroke:#181818;stroke-width:1.0;"
       id="polygon27" />
    <path
       d="M93.9999,389.7578 L93.9999,390.0381 L103.908,389.2054 L113.8161,390.0155 L123.7242,390.2907 L133.6323,388.8066 L143.5404,389.6542 L153.4485,389.1892 L163.3565,389.2465 L173.2646,389.6669 L183.1727,388.836 L193.0808,390.496 L202.9889,388.9174 L212.897,389.4941 L222.8051,390.3337 L232.7132,389.6434 L242.6213,389.8488 L252.5294,389.7152 L262.4374,389.9958 L272.3455,390.0767 L282.2536,390.5387 L292.1617,390.6526 L302.0698,390.6635 L311.9779,390.0973 L321.886,390.3759 L331.7941,389.7578 "
       fill="none"
       style="stroke:#181818;stroke-width:1.0;stroke-dasharray:2.0,2.0;"
       id="path27" />
    <text
       fill="#000000"
       font-family="sans-serif"
       font-size="13"
       lengthAdjust="spacing"
       textLength="142.4035"
       x="105.9999"
       y="369.5591"
       id="text28">5.過去のあなたの投票を</text>
    <text
       fill="#000000"
       font-family="sans-serif"
       font-size="13"
       lengthAdjust="spacing"
       textLength="83.2115"
       x="118.3969"
       y="384.6919"
       id="text29">確認できます!</text>
    <polygon
       fill="#181818"
       points="409.7942,439.8906,409.8202,439.9557,411.7429,440.5624,413.8181,441.5504,415.8436,442.4143,417.7058,442.8698,419.7942,443.8906,419.7845,443.8666,417.7414,444.5586,415.7467,445.3719,413.7857,446.2695,411.7086,446.8767,409.7942,447.8906,409.9247,448.0211,410.4456,446.9421,411.3475,446.244,412.296,445.5924,412.9739,444.6704,413.7942,443.8906,413.8102,443.9067,412.9866,443.0831,412.2362,442.3327,411.4505,441.547,410.7322,440.8287,409.7942,439.8906"
       style="stroke:#181818;stroke-width:1.0;"
       id="polygon29" />
    <path
       d="M332.7941,443.8906 L332.7941,444.1709 L343.1691,443.3382 L353.5441,444.1483 L363.9191,444.4235 L374.2941,442.9394 L384.6691,443.787 L395.0441,443.322 L405.4191,443.3793 L415.7942,443.8906 "
       fill="none"
       style="stroke:#181818;stroke-width:1.0;"
       id="path29" />
    <text
       fill="#000000"
       font-family="sans-serif"
       font-size="13"
       lengthAdjust="spacing"
       textLength="65.0001"
       x="339.7941"
       y="438.8247"
       id="text30">集計・分析</text>
    <polygon
       fill="none"
       points="92.522,488.3792,91.9357,489.1804,91.2422,490.3538,90.2503,491.1446,89.208,491.577,88.377,491.6145,87.3089,491.0737,86.3011,490.7204,85.5361,490.003,85.1348,489.1818,84.8969,488.5279,84.6638,487.6738,84.2854,486.9388,84.5761,486.2212,84.8309,485.4351,85.7869,484.8133,86.4595,484.0066,87.2921,483.7388,88.2818,483.5081,89.551,483.6451,90.2461,483.973,91.0543,484.1216,92.0371,485.1284,92.3796,486.1913,92.5285,486.9166,92.3599,488.1117"
       style="stroke:#181818;stroke-width:1.5;"
       id="polygon30" />
    <polygon
       fill="#181818"
       points="105.4999,484.1563,105.5259,484.2213,103.4486,484.828,101.5238,485.8161,99.5494,486.6799,97.4116,487.1355,95.4999,488.1563,95.4903,488.1322,97.4471,488.8243,99.4524,489.6376,101.4915,490.5352,103.4143,491.1423,105.4999,492.1563,105.6304,492.2867,104.5513,491.2077,103.8533,490.5096,103.2017,489.8581,102.2797,488.936,101.4999,488.1563,101.516,488.1723,102.2924,487.3487,103.142,486.5983,103.9563,485.8126,104.838,485.0943,105.4999,484.1563"
       style="stroke:#181818;stroke-width:1.0;"
       id="polygon31" />
    <path
       d="M99.4999,488.1563 L99.4999,488.4365 L109.5404,487.6038 L119.5808,488.414 L129.6212,488.6892 L139.6617,487.2051 L149.7021,488.0526 L159.7426,487.5876 L169.783,487.6449 L179.8235,488.0654 L189.8639,487.2344 L199.9044,488.8944 L209.9448,487.3159 L219.9853,487.8926 L230.0257,488.7322 L240.0661,488.0419 L250.1066,488.2472 L260.147,488.1137 L270.1875,488.3943 L280.2279,488.4751 L290.2684,488.9372 L300.3088,489.051 L310.3493,489.0619 L320.3897,488.4958 L330.4302,488.7744 L340.4706,489.0926 L350.511,487.1947 L360.5515,489.0609 L370.5919,487.7609 L380.6324,488.868 L390.6728,487.4962 L400.7133,488.0649 L410.7537,489.1451 L420.7942,488.1563 "
       fill="none"
       style="stroke:#181818;stroke-width:1.0;"
       id="path31" />
    <text
       fill="#000000"
       font-family="sans-serif"
       font-size="13"
       lengthAdjust="spacing"
       textLength="181.4035"
       x="105.9999"
       y="467.9575"
       id="text31">6.投票データ全体の分析結果は</text>
    <text
       fill="#000000"
       font-family="sans-serif"
       font-size="13"
       lengthAdjust="spacing"
       textLength="117.0001"
       x="105.9999"
       y="483.0903"
       id="text32">誰でも閲覧できます</text>
    <polygon
       fill="none"
       points="616.4183,502.3792,615.8319,503.1804,615.1384,504.3538,614.1466,505.1446,613.1043,505.577,612.2733,505.6145,611.2052,505.0737,610.1973,504.7204,609.4324,504.003,609.0311,503.1818,608.7932,502.5279,608.56,501.6738,608.1816,500.9388,608.4724,500.2212,608.7272,499.4351,609.6832,498.8133,610.3558,498.0066,611.1883,497.7388,612.178,497.5081,613.4472,497.6451,614.1424,497.973,614.9506,498.1216,615.9333,499.1284,616.2759,500.1913,616.4248,500.9166,616.2562,502.1117"
       style="stroke:#181818;stroke-width:1.5;"
       id="polygon32" />
    <polygon
       fill="#181818"
       points="595.3962,498.1563,595.4222,498.2213,597.3449,498.828,599.4201,499.8161,601.4457,500.6799,603.3079,501.1355,605.3962,502.1563,605.3866,502.1322,603.3434,502.8243,601.3487,503.6376,599.3877,504.5352,597.3106,505.1423,595.3962,506.1563,595.5267,506.2867,596.0476,505.2077,596.9496,504.5096,597.898,503.8581,598.576,502.936,599.3962,502.1563,599.4123,502.1723,598.5886,501.3487,597.8383,500.5983,597.0525,499.8126,596.3342,499.0943,595.3962,498.1563"
       style="stroke:#181818;stroke-width:1.0;"
       id="polygon33" />
    <path
       d="M421.7942,502.1563 L421.7942,502.4365 L431.772,501.6038 L441.7499,502.414 L451.7278,502.6892 L461.7057,501.2051 L471.6836,502.0526 L481.6615,501.5876 L491.6394,501.6449 L501.6173,502.0654 L511.5952,501.2344 L521.5731,502.8944 L531.5509,501.3159 L541.5288,501.8926 L551.5067,502.7322 L561.4846,502.0419 L571.4625,502.2472 L581.4404,502.1137 L591.4183,502.3943 L601.3962,502.1563 "
       fill="none"
       style="stroke:#181818;stroke-width:1.0;"
       id="path33" />
    <path
       d="M339.7941,551.2891 L339.8601,551.3551 L341.6639,553.1589 L343.8548,555.3498 L345.9197,557.4147 L347.5699,559.0649 L349.7941,561.2891 "
       fill="none"
       style="stroke:#181818;stroke-width:2.0;"
       id="path34" />
    <path
       d="M339.7941,561.2891 L339.8601,561.3551 L341.6639,559.1589 L343.8548,557.3498 L345.9197,555.4147 L347.5699,553.0649 L349.7941,551.2891 "
       fill="none"
       style="stroke:#181818;stroke-width:2.0;"
       id="path35" />
    <path
       d="M344.7941,556.2891 L344.7941,556.5693 L354.6868,555.7366 L364.5794,556.5468 L374.4721,556.822 L384.3648,555.3379 L394.2574,556.1854 L404.1501,555.7204 L414.0428,555.7777 L423.9354,556.1982 L433.8281,555.3672 L443.7208,557.0273 L453.6135,555.4487 L463.5061,556.0254 L473.3988,556.865 L483.2915,556.1747 L493.1841,556.38 L503.0768,556.2465 L512.9695,556.5271 L522.8621,556.6079 L532.7548,557.07 L542.6475,557.1838 L552.5402,557.1947 L562.4328,556.6286 L572.3255,556.9072 L582.2182,557.2254 L592.1108,555.3275 L602.0035,557.1937 L611.8962,556.2891 "
       fill="none"
       style="stroke:#181818;stroke-width:1.0;"
       id="path36" />
    <text
       fill="#000000"
       font-family="sans-serif"
       font-size="13"
       lengthAdjust="spacing"
       textLength="247.0003"
       x="349.7941"
       y="551.2231"
       id="text36">投票データは開発者以外は閲覧出来ません</text>
    <path
       d="M339.7941,610.6875 L339.8601,610.7536 L341.6639,612.5573 L343.8548,614.7482 L345.9197,616.8131 L347.5699,618.4633 L349.7941,620.6875 "
       fill="none"
       style="stroke:#181818;stroke-width:2.0;"
       id="path37" />
    <path
       d="M339.7941,620.6875 L339.8601,620.7536 L341.6639,618.5573 L343.8548,616.7482 L345.9197,614.8131 L347.5699,612.4633 L349.7941,610.6875 "
       fill="none"
       style="stroke:#181818;stroke-width:2.0;"
       id="path38" />
    <path
       d="M344.7941,615.6875 L344.7941,615.9677 L354.6868,615.1351 L364.5794,615.9452 L374.4721,616.2204 L384.3648,614.7363 L394.2574,615.5839 L404.1501,615.1188 L414.0428,615.1762 L423.9354,615.5966 L433.8281,614.7657 L443.7208,616.4257 L453.6135,614.8471 L463.5061,615.4238 L473.3988,616.2634 L483.2915,615.5731 L493.1841,615.7785 L503.0768,615.6449 L512.9695,615.9255 L522.8621,616.0063 L532.7548,616.4684 L542.6475,616.5822 L552.5402,616.5932 L562.4328,616.027 L572.3255,616.3056 L582.2182,616.6238 L592.1108,614.7259 L602.0035,616.5922 L611.8962,615.6875 "
       fill="none"
       style="stroke:#181818;stroke-width:1.0;"
       id="path39" />
    <text
       fill="#000000"
       font-family="sans-serif"
       font-size="13"
       lengthAdjust="spacing"
       textLength="130.0002"
       x="349.7941"
       y="580.356"
       id="text39">開発者も含め他の人は</text>
    <text
       fill="#000000"
       font-family="sans-serif"
       font-size="13"
       lengthAdjust="spacing"
       textLength="208.0002"
       x="349.7941"
       y="595.4888"
       id="text40">あなたのユーザ番号を知らないので</text>
    <text
       fill="#000000"
       font-family="sans-serif"
       font-size="13"
       lengthAdjust="spacing"
       textLength="169.0002"
       x="349.7941"
       y="610.6216"
       id="text41">誰が投票したか分かりません</text>
    <path
       d="M517.8961,670.0859 L517.9621,670.152 L519.7659,671.9557 L521.9568,674.1467 L524.0217,676.2115 L525.6719,677.8617 L527.8961,680.0859 "
       fill="none"
       style="stroke:#181818;stroke-width:2.0;"
       id="path41" />
    <path
       d="M517.8961,680.0859 L517.9621,680.152 L519.7659,677.9557 L521.9568,676.1467 L524.0217,674.2115 L525.6719,671.8617 L527.8961,670.0859 "
       fill="none"
       style="stroke:#181818;stroke-width:2.0;"
       id="path42" />
    <path
       d="M522.8961,675.0859 L522.8961,675.3662 L532.785,674.5335 L542.6739,675.3437 L552.5628,675.6188 L562.4517,674.1347 L572.3406,674.9823 L582.2295,674.5173 L592.1184,674.5746 L602.0073,674.9951 L611.8962,675.0859 "
       fill="none"
       style="stroke:#181818;stroke-width:1.0;"
       id="path43" />
    <text
       fill="#000000"
       font-family="sans-serif"
       font-size="13"
       lengthAdjust="spacing"
       textLength="52.0001"
       x="527.8961"
       y="639.7544"
       id="text43">あなたの</text>
    <text
       fill="#000000"
       font-family="sans-serif"
       font-size="13"
       lengthAdjust="spacing"
       textLength="78.0001"
       x="527.8961"
       y="654.8872"
       id="text44">アカウントも</text>
    <text
       fill="#000000"
       font-family="sans-serif"
       font-size="13"
       lengthAdjust="spacing"
       textLength="78.0001"
       x="527.8961"
       y="670.02"
       id="text45">分かりません</text>
    <!--SRC=[VPDTRz9W5CVl-ocUSGM9DF7rWYn-2Y-y825rD8uu2saxvn8kzZnr6uwNaIsWP6vBfa3523gZHd3kmnnQohVmF4zf2vXvHpd_yp-_y_8Opt9QGT6LvsHTqR9RUiuqLOsO-gOg6M5e8wUfvdP19NdTNCzBofgPrmbG1hG7z9me1jaqL5r2iPbRonKKpIJkGMFIji7Q1-iti6kkoIgcyaGnr0MTKzfpp-gJxtNtx1qNAPgoiMtaZ0LHx369FzhYQ7eYnbMc_o7DKBpU5w1b7Z1CNT6UyWWd8ic7WJH5Ril0Be0DW8s0_G9svDbVdSC1q3T0Ey0OiDT0Iy3AG6q_UpMPZDBlo61rH3C_d7hr5Wc_9esUS_YJe65Q8uIuZHQtcRUaVu2s94dBcpZ15sWifWKC8tj0Zu6UnkQzOq0Rm8vN95NB4fua5Ol5i9zWYYboLtPhDiTddy5w3zP7V-PkYy4E5InBZ4ZasM-dbKlHCuUAU_izfzn827Kyb6SoY97901tuUlxJppX1i4mcSGFHFJay2g2LyTMrQ10Pgo5H5Eylqz417WFkKQoW3xGhotAqYAZAVNbAQqvj94IHtUpYPckON0ozNXLDU77Hwug03cmuU71hAJ8zsVFi4bWZ_npzgldLv9paWRnqqiwkFRx2vVNdJnYRI6lY7BiuxMdpqkjqvo6am13hvwDhNI1xYNM3I6hv8M61QRCyQGszdTtngEryQ8f_U1rdV-YUjiCrtMGOfYEWK_y4Z8v7QD8V3uU2_dyhOaUJyxQuQXIyyhSqwxSo0-M7WgdbO9S74T3iBItnpDV3wloD8XJM_GOMFaUMrlwr-Wi0]-->
  </g>
</svg>
